<?xml version="1.0" encoding="UTF-8"?> <svg xmlns="http://www.w3.org/2000/svg" xmlns:xlink="http://www.w3.org/1999/xlink" version="1.1" id="Layer_1" x="0px" y="0px" viewBox="0 0 150 150" style="enable-background:new 0 0 150 150;" xml:space="preserve"> <style type="text/css"> .st0{fill:#030304;} .st1{fill:#4079BD;} .st2{fill:#3362AB;} .st3{fill:#40B3E7;} .st4{fill:#2A519E;} .st5{fill:#30509D;} .st6{fill:#1E4593;} .st7{fill:#3C65AE;} .st8{fill:#4588C7;} </style> <g> <g> <path class="st0" d="M12.9,109h2.6l8.5,21.9h-4.5L14.3,116L9,130.9H4.5L12.9,109z M8.6,123.4h11.7v4H8.6 C8.6,127.4,8.6,123.4,8.6,123.4z"></path> <path class="st0" d="M30.7,125.8c0,0.4,0.1,0.7,0.3,0.9c0.2,0.2,0.5,0.3,1,0.3h0.7v4h-2.2c-1.3,0-2.2-0.4-2.9-1.1 c-0.7-0.7-1-1.7-1-3.1V109h4.2L30.7,125.8L30.7,125.8z"></path> <path class="st0" d="M35.3,109h4.2v4.1h-4.2C35.3,113.1,35.3,109,35.3,109z M35.3,115.3h4.2v15.6h-4.2 C35.3,130.9,35.3,115.3,35.3,115.3z"></path> <path class="st0" d="M46.7,130.9c-0.9-0.2-1.7-0.4-2.5-0.7c-0.8-0.3-1.5-0.7-2.1-1.2l2.6-3.2c0.8,0.5,1.6,0.8,2.4,1.1 c0.8,0.3,1.6,0.4,2.4,0.4c1,0,1.7-0.1,2.3-0.3c0.6-0.2,0.8-0.5,0.8-0.9c0-0.4-0.1-0.6-0.3-0.8c-0.2-0.2-0.5-0.3-0.9-0.4 c-0.4-0.1-0.9-0.2-1.5-0.2c-0.2,0-0.4,0-0.6-0.1c-0.2,0-0.4,0-0.6-0.1c0,0-0.1,0-0.1,0c0,0-0.1,0-0.1,0c-1.2-0.2-2.1-0.3-2.8-0.5 c-0.7-0.2-1.3-0.6-1.8-1.3c-0.5-0.6-0.7-1.5-0.7-2.7c0-1,0.2-1.9,0.8-2.7c0.5-0.7,1.3-1.3,2.2-1.7c1-0.4,2.2-0.6,3.5-0.6 c0.8,0,1.6,0.1,2.4,0.2s1.6,0.4,2.3,0.7s1.4,0.7,2,1.1l-2.5,3c-0.7-0.4-1.4-0.7-2.2-0.9c-0.7-0.2-1.5-0.3-2.2-0.3 c-0.8,0-1.5,0.1-2,0.3c-0.5,0.2-0.7,0.5-0.7,0.8c0,0.3,0.1,0.5,0.4,0.6c0.2,0.2,0.6,0.2,0.9,0.3c0.4,0.1,0.9,0.2,1.6,0.2 c0.1,0,0.2,0,0.3,0c0.1,0,0.2,0,0.3,0c0,0,0.1,0,0.1,0c0.1,0,0.1,0,0.1,0c1.2,0.2,2.2,0.3,3,0.5c0.8,0.2,1.4,0.7,2,1.3 c0.6,0.7,0.8,1.6,0.8,2.9c0,1.1-0.3,2-0.8,2.8c-0.5,0.8-1.3,1.4-2.3,1.8s-2.2,0.6-3.7,0.6C48.5,131.2,47.6,131.1,46.7,130.9z"></path> <path class="st0" d="M68.3,109h4.2v21.9h-4.2V109z M70.4,126.9h5.3c1.4,0,2.4-0.3,3.2-1c0.7-0.7,1.1-1.6,1.1-2.8v-6.5 c0-1.2-0.4-2.1-1.1-2.8c-0.7-0.7-1.8-1-3.2-1h-5.3v-4h5.2c1.8,0,3.4,0.3,4.7,0.9c1.3,0.6,2.3,1.5,3,2.7c0.7,1.2,1,2.6,1,4.2v6.2 c0,1.6-0.3,2.9-1,4.1s-1.6,2.1-2.9,2.7c-1.3,0.7-2.9,1-4.8,1h-5.2L70.4,126.9L70.4,126.9z"></path> <path class="st0" d="M88.3,109h4.2v4.1h-4.2V109z M88.3,115.3h4.2v15.6h-4.2V115.3z"></path> <path class="st0" d="M94.2,133.3h1c0.4,0,0.7-0.1,0.9-0.3c0.2-0.2,0.3-0.5,0.3-0.9v-16.8h4.2v17.8c0,1.3-0.3,2.3-1,3.1 c-0.7,0.7-1.7,1.1-2.9,1.1h-2.3L94.2,133.3L94.2,133.3z M96.4,109h4.2v4.1h-4.2V109z"></path> <path class="st0" d="M104.5,109h4.2v4.1h-4.2V109z M104.5,115.3h4.2v15.6h-4.2V115.3z"></path> <path class="st0" d="M111.3,115.3h7.7v3.5h-7.7V115.3z M113.9,129.9c-0.6-0.7-1-1.7-1-3.1v-16.1h4.2v15.1c0,0.4,0.1,0.7,0.2,0.9 c0.2,0.2,0.4,0.3,0.7,0.3h1v4H117C115.6,131,114.6,130.6,113.9,129.9z"></path> <path class="st0" d="M123.2,129.9c-0.8-0.8-1.3-2-1.3-3.6c0-1.5,0.5-2.7,1.4-3.5c1-0.8,2.4-1.2,4.2-1.2h4l0.2,3.2h-4.2 c-0.6,0-1.1,0.1-1.4,0.4s-0.5,0.6-0.5,1.1s0.2,0.9,0.6,1.1s1,0.4,1.8,0.4c1.1,0,1.9-0.1,2.5-0.4c0.6-0.2,0.8-0.6,0.8-1.2l0.3,2.3 c-0.1,0.6-0.3,1-0.8,1.4c-0.5,0.4-1,0.7-1.8,0.9c-0.7,0.2-1.4,0.3-2.2,0.3C125.4,131.2,124.1,130.7,123.2,129.9z M131.5,121 c0-0.7-0.2-1.3-0.7-1.7c-0.5-0.4-1.2-0.6-2.1-0.6c-0.6,0-1.2,0.1-1.8,0.3c-0.6,0.2-1.1,0.5-1.5,0.8l-2.6-2.5 c0.6-0.7,1.5-1.3,2.5-1.7c1-0.4,2.2-0.6,3.4-0.6c1.4,0,2.5,0.2,3.5,0.7s1.7,1.1,2.2,2c0.5,0.9,0.8,1.9,0.8,3.2v10h-3.8L131.5,121 L131.5,121z"></path> <path class="st0" d="M143.5,125.8c0,0.4,0.1,0.7,0.3,0.9c0.2,0.2,0.5,0.3,1,0.3h0.7v4h-2.2c-1.3,0-2.2-0.4-2.9-1.1 c-0.7-0.7-1-1.7-1-3.1V109h4.2L143.5,125.8L143.5,125.8z"></path> </g> <g> <path class="st1" d="M55.6,88.7c0-0.1,0-0.2,0-0.2L55,28.2c-7.3-5.1-12.9-5.2-16.7-3.9c-0.7,1.5-1.2,3.3-1.1,5.1L38.9,90 c0.1,6.3,5.1,11.4,11.5,12l11.2,1.1h1C55.1,101.6,55.6,90.3,55.6,88.7z"></path> <path class="st2" d="M93.1,64l-15.8-3.9C73.2,59,69,61,67.2,64.7L55.6,88.7c-0.1,1.5-0.5,12.9,6.9,14.3c3.5,0,6.6-1.9,8.1-5.1 l8.9-19.2C86,62.7,92.6,63.9,93.1,64z"></path> <path class="st3" d="M114.7,55.1L66.8,15.4c-3.4-2.8-8.2-3.5-12.2-1.5l-11,5.2c-2.4,1.1-4.2,3-5.3,5.2C42.1,23,47.6,23,55,28.3 l0,0l0,0c0.6,0.4,1.1,0.8,1.7,1.3c1,0.8,11,9,11,9l30.7,25c1,0.8,1.9,1.8,2.9,2.5c0.8,0.1,1.8,0.2,2.8,0.4 c5.1,0.4,10.7-0.2,14.5-3.6C118.3,59.7,117,57,114.7,55.1z"></path> <path class="st4" d="M104.1,66.2c-1-0.1-1.9-0.1-2.8-0.4c-4.6-0.6-8.2-1.8-8.2-1.8c-0.5-0.1-7.1-1.3-13.5,14.8l20.7,5 c3.9,0.9,7.8-0.7,9.9-4l6.8-10.6c1.2-2,1.8-4.3,1.7-6.4C114.8,66,109.1,66.5,104.1,66.2z"></path> <path class="st5" d="M59,101c0.2,0.2,0.5,0.5,0.7,0.6l0,0c-0.1-0.1-3.6-3.9-2.1-17l-1.9,4C55.6,90,55.2,97.4,59,101z"></path> <path class="st6" d="M93.1,64L93.1,64c-0.5-0.1-7.3-1.4-13.6,14.6l2.4,0.6C82,79.4,83.9,67.6,93.1,64z"></path> <path class="st7" d="M55,29.9v-1.7c-6.9-5-12.7-5.4-16.7-3.9l0,0C40.6,23.6,46.4,22.3,55,29.9z"></path> <path class="st8" d="M99.9,64.6c0.5,0.5,1,0.8,1.4,1.2c0.8,0.1,1.8,0.2,2.8,0.4c5.1,0.4,10.7-0.2,14.5-3.6 C113.1,66.9,102.7,65.2,99.9,64.6z"></path> </g> </g> </svg> 